<mxfile host="app.diagrams.net" modified="2021-05-25T12:33:17.413Z" agent="5.0 (Windows NT 10.0; WOW64) AppleWebKit/537.36 (KHTML, like Gecko) Chrome/75.0.3770.100 Safari/537.36" etag="9iJVskPsAWcLk3qmF8C4" version="14.6.1" type="github">
  <diagram id="sXlfjVdnzh4Tp1Z5orWX" name="Page-1">
    <mxGraphModel dx="1038" dy="616" grid="1" gridSize="10" guides="1" tooltips="1" connect="1" arrows="1" fold="1" page="1" pageScale="1" pageWidth="827" pageHeight="1169" math="0" shadow="0">
      <root>
        <mxCell id="0" />
        <mxCell id="1" parent="0" />
        <mxCell id="Q39B2pXQYlMSOcaU-6DF-3" value="" style="edgeStyle=orthogonalEdgeStyle;rounded=0;orthogonalLoop=1;jettySize=auto;html=1;" edge="1" parent="1" source="Q39B2pXQYlMSOcaU-6DF-1" target="Q39B2pXQYlMSOcaU-6DF-2">
          <mxGeometry relative="1" as="geometry" />
        </mxCell>
        <mxCell id="Q39B2pXQYlMSOcaU-6DF-1" value="输入图片（Height*Width*Channel）" style="rounded=0;whiteSpace=wrap;html=1;" vertex="1" parent="1">
          <mxGeometry x="80" y="180" width="150" height="60" as="geometry" />
        </mxCell>
        <mxCell id="Q39B2pXQYlMSOcaU-6DF-5" value="" style="edgeStyle=orthogonalEdgeStyle;rounded=0;orthogonalLoop=1;jettySize=auto;html=1;" edge="1" parent="1" source="Q39B2pXQYlMSOcaU-6DF-2" target="Q39B2pXQYlMSOcaU-6DF-4">
          <mxGeometry relative="1" as="geometry" />
        </mxCell>
        <mxCell id="Q39B2pXQYlMSOcaU-6DF-2" value="颜色转换" style="rounded=0;whiteSpace=wrap;html=1;" vertex="1" parent="1">
          <mxGeometry x="325" y="180" width="120" height="60" as="geometry" />
        </mxCell>
        <mxCell id="Q39B2pXQYlMSOcaU-6DF-7" value="" style="edgeStyle=orthogonalEdgeStyle;rounded=0;orthogonalLoop=1;jettySize=auto;html=1;" edge="1" parent="1" source="Q39B2pXQYlMSOcaU-6DF-4" target="Q39B2pXQYlMSOcaU-6DF-6">
          <mxGeometry relative="1" as="geometry" />
        </mxCell>
        <mxCell id="Q39B2pXQYlMSOcaU-6DF-4" value="0偏置转换" style="rounded=0;whiteSpace=wrap;html=1;" vertex="1" parent="1">
          <mxGeometry x="525" y="180" width="120" height="60" as="geometry" />
        </mxCell>
        <mxCell id="Q39B2pXQYlMSOcaU-6DF-6" value="" style="rounded=0;whiteSpace=wrap;html=1;" vertex="1" parent="1">
          <mxGeometry x="725" y="180" width="120" height="60" as="geometry" />
        </mxCell>
      </root>
    </mxGraphModel>
  </diagram>
</mxfile>
